<svg width="24" height="24" viewBox="0 0 24 24" fill="none" xmlns="http://www.w3.org/2000/svg">
<path fill-rule="evenodd" clip-rule="evenodd" d="M17 8.5C17 13.1944 13.1944 17 8.5 17C8.02756 17 7.56412 16.9615 7.11266 16.8873C6.05938 16.7144 5.0713 16.3479 4.18615 15.8255L0 17.5L1.42773 13.2168C0.525849 11.8672 0 10.245 0 8.5C0 3.80558 3.80558 0 8.5 0C12.722 0 16.225 3.07815 16.8873 7.11266C16.8924 7.14356 16.8973 7.17452 16.9021 7.20553C16.9666 7.62761 17 8.0599 17 8.5ZM19 8.5C19 14.299 14.299 19 8.5 19C8.24427 19 7.99068 18.9909 7.73953 18.9729C9.06756 21.9359 12.0427 24 15.5 24C17.2794 24 18.9311 23.4532 20.2963 22.5185L24 24L22.6825 20.0475C23.5169 18.7325 24 17.1727 24 15.5C24 12.0427 21.9359 9.06756 18.9729 7.73953C18.9909 7.99068 19 8.24427 19 8.5Z" fill="#32C45B"/>
</svg>
