<svg width="24" height="24" viewBox="0 0 24 24" fill="none" xmlns="http://www.w3.org/2000/svg">
<path d="M21.1903 23.7418L23.7197 21.3785C24.042 21.0773 24.0859 20.6246 23.8114 20.3711C23.8114 20.3711 20.5451 17.5007 16.4162 14L13.4933 16.7308L20.1091 23.8336C20.3801 24.0838 20.8683 24.0425 21.1903 23.7418Z" fill="#32C45B"/>
<path d="M0.216528 21.0159C-0.0479247 21.263 -0.0479247 21.6588 0.216528 21.9031L2.26392 23.8164C2.39274 23.9373 2.56904 24.0005 2.73852 24.0005C2.908 24.0005 3.0843 23.9403 3.21311 23.8164L12.0675 15.5423L14.9391 12.8589L16.9163 11.0008L13.9197 8.19727L11.7932 10.1946L9.21693 12.6021L0.216528 21.0159Z" fill="#32C45B"/>
<path d="M13.0713 4.72003C13.2304 4.86896 13.4441 4.94496 13.6545 4.94496C13.8649 4.94496 14.075 4.86896 14.2377 4.72003L14.5464 4.43185L15.5261 5.34739L15.2175 5.63557C15.021 5.81945 14.9429 6.076 14.9904 6.31343C15.0106 6.42437 15.0581 6.53199 15.1326 6.62686C15.1563 6.65874 15.1866 6.69036 15.2175 6.72198L15.3632 6.85817L18.3633 9.66167L18.6008 9.88329L18.7088 9.98454C18.7566 10.0289 18.8044 10.0638 18.8548 10.0922C18.9869 10.1715 19.1395 10.2092 19.2923 10.2092C19.5027 10.2092 19.7123 10.1332 19.8755 9.98428L19.9773 9.88916C21.6656 12.0181 21.557 13.494 21.903 13.494C22.0621 13.494 22.3233 13.1706 22.9131 12.4483C24.6245 10.3291 23.9946 8.23505 23.1944 6.8824L23.3707 6.71765C23.6928 6.41672 23.6928 5.92885 23.3707 5.63098L19.875 2.36945C19.7156 2.22051 19.5022 2.14452 19.2915 2.14452C19.0814 2.14452 18.8715 2.22051 18.7083 2.36945L18.3999 2.65763L17.4171 1.74872L17.7291 1.45722C18.0514 1.15629 18.0514 0.668424 17.7291 0.370553L17.5732 0.224933C17.4144 0.0759979 17.2007 0 16.9906 0C16.7804 0 16.57 0.0759979 16.4074 0.224933L12.9154 3.48774C12.5931 3.78867 12.5931 4.27654 12.9154 4.57441L13.0713 4.72003Z" fill="#32C45B"/>
<path d="M7.90076 11.3506L10.4162 9C8.51782 7.39384 8.13531 7.01373 8.13531 7.01373C7.4473 6.35806 7.56602 5.39814 7.03356 4.68228C6.56934 4.05823 5.77925 3.73817 5.10789 3.35487C4.03998 2.74663 2.9688 2.13839 1.90089 1.53015C1.7587 1.44778 1.57203 1.46997 1.45331 1.5809L0.107303 2.83844C-0.0114141 2.94937 -0.0348846 3.12356 0.0532663 3.25668C0.68042 4.21966 1.30757 5.17958 1.93118 6.14256C2.31763 6.73192 2.6907 7.60309 3.32113 7.99583C4.11776 8.49314 5.20941 8.43295 5.91462 9.07307C5.92144 9.07944 5.92472 9.08582 5.93482 9.09219L7.90076 11.3506Z" fill="#32C45B"/>
</svg>
