<svg width="222" height="29" viewBox="0 0 222 29" fill="none" xmlns="http://www.w3.org/2000/svg">
<path d="M16.5171 4.87324L0 0.0283203V6.44537L5.59104 8.08841L16.5171 4.87324Z" fill="#00BCD6"/>
<path d="M38.7548 0.0615234L0 11.4668V16.7801L38.7548 28.147V21.7374L12.8446 14.1161L19.4688 12.1687L25.9102 14.0614L22.2301 15.143L33.1866 18.367L38.7548 16.7269V11.3959L30.4178 8.95053L38.7548 6.50074V0.0615234Z" fill="#00BCD6"/>
<path d="M50.4672 0.358398H56.9314C60.4469 0.358398 62.6093 1.6882 62.6093 4.60048C62.6093 6.38685 61.503 7.57924 59.8069 8.12742C62.3639 8.55591 63.9366 9.84287 63.9366 12.2735C63.9366 14.8947 61.9205 16.5584 58.0621 16.5584H50.4672V0.358398ZM56.4651 7.19803C58.5787 7.19803 59.9547 6.50653 59.9547 4.88565C59.9547 3.12292 58.6762 2.50382 56.587 2.50382H53.0303V7.19803H56.4651ZM57.7177 14.4189C60.0279 14.4189 61.2089 13.5841 61.2089 11.9883C61.2089 10.1295 59.7581 9.39073 57.3001 9.39073H53.0303V14.4144L57.7177 14.4189Z" fill="white"/>
<path d="M69.6404 16.5628V0.358398H72.1959V14.3952H81.3391V16.5628H69.6404Z" fill="white"/>
<path d="M88.5363 9.69954C88.5363 12.6074 90.0602 14.509 93.3304 14.509C96.6493 14.509 98.1976 12.4596 98.1976 9.67147V0.358398H100.753V9.86651C100.753 13.6077 98.2219 16.8258 93.3304 16.8258C88.4891 16.8258 85.9823 13.918 85.9823 9.86651V0.358398H88.5363V9.69954Z" fill="white"/>
<path d="M106.922 16.5628V0.358398H119.899V2.5511H109.384V7.10199H118.099V9.29469H109.38V14.3701H119.894V16.5628H106.922Z" fill="white"/>
<path d="M137.225 8.72287L133.711 16.5628H130.958L124.323 0.358398H127.075L132.561 13.7747L136.099 5.79582L133.908 0.358398H136.69L141.852 13.3934L147.4 0.358398H150.178L143.243 16.5628H140.5L137.225 8.72287Z" fill="white"/>
<path d="M157.822 0.358398H160.795L167.431 16.5628H164.825L163.358 12.9886H155.027L153.503 16.5628H150.897L157.822 0.358398ZM155.708 11.1106H162.687L159.295 2.83627L155.708 11.1106Z" fill="white"/>
<path d="M176.647 2.5511V16.5628H174.09V2.5511H168.094V0.358398H182.35V2.5511H176.647Z" fill="white"/>
<path d="M187.854 16.5628V0.358398H200.831V2.5511H190.316V7.10199H199.042V9.29469H190.316V14.3701H200.831V16.5628H187.854Z" fill="white"/>
<path d="M206.655 0.358398H213.93C217.642 0.358398 220.198 1.94973 220.198 5.5535C220.198 8.34166 218.108 10.2241 215.429 10.558L221.28 16.158V16.5628H218.329L212.26 10.6053H209.212V16.5628H206.655V0.358398ZM209.212 2.52746V8.62831H214.201C216.069 8.62831 217.543 7.53196 217.543 5.60079C217.543 3.5322 216.069 2.52746 214.201 2.52746H209.212Z" fill="white"/>
</svg>
